# MagicaVoxel @ Ephtracy

# group
g Cowboy

# material
mtllib Cowboy.mtl
usemtl palette

# normals
vn -1 0 0
vn 1 0 0
vn 0 0 1
vn 0 0 -1
vn 0 -1 0
vn 0 1 0

# texcoords
vt 0.822266 0.5
vt 0.826172 0.5
vt 0.830078 0.5
vt 0.833984 0.5
vt 0.837891 0.5
vt 0.900391 0.5
vt 0.990234 0.5

# verts
v -4 3 1
v -4 3 -0
v -4 3 -1
v -4 4 1
v -4 4 -0
v -4 4 -1
v -4 6 2
v -4 6 -3
v -4 7 2
v -4 7 -3
v -3 0 1
v -3 0 -1
v -3 1 1
v -3 1 -0
v -3 1 -1
v -3 2 1
v -3 2 -0
v -3 2 -1
v -3 2 -2
v -3 3 1
v -3 3 -0
v -3 3 -1
v -3 4 1
v -3 4 -0
v -3 4 -1
v -3 4 -2
v -3 5 -0
v -3 5 -2
v -3 6 1
v -3 6 -0
v -3 6 -2
v -3 7 1
v -3 7 -2
v -3 8 1
v -3 8 -2
v -1 4 2
v -1 4 1
v -1 5 2
v -1 5 1
v 1 0 1
v 1 0 -1
v 1 1 1
v 1 1 -0
v 1 1 -1
v 1 2 -0
v 1 2 -1
v 1 4 3
v 1 4 2
v 1 5 2
v 1 6 2
v 1 7 2
v 1 8 3
v 1 8 2
v -2 0 1
v -2 0 -1
v -2 1 1
v -2 1 -0
v -2 1 -1
v -2 2 -0
v -2 2 -1
v 2 0 1
v 2 0 -1
v 2 1 1
v 2 1 -0
v 2 1 -1
v 2 2 1
v 2 2 -0
v 2 2 -1
v 2 2 -2
v 2 3 -0
v 2 3 -1
v 2 4 3
v 2 4 1
v 2 4 -0
v 2 4 -1
v 2 4 -2
v 2 5 2
v 2 5 1
v 2 5 -0
v 2 5 -2
v 2 6 2
v 2 6 1
v 2 6 -0
v 2 6 -2
v 2 7 2
v 2 7 1
v 2 7 -2
v 2 8 3
v 2 8 2
v 2 8 1
v 2 8 -2
v 3 2 -0
v 3 2 -1
v 3 3 -0
v 3 3 -1
v 3 4 -0
v 3 4 -1
v 3 6 2
v 3 6 -3
v 3 7 2
v 3 7 -3
v 1 4 3
v 1 8 3
v 2 4 3
v 2 8 3
v -4 6 2
v -4 7 2
v -1 4 2
v -1 5 2
v 1 4 2
v 1 5 2
v 1 6 2
v 1 7 2
v 2 6 2
v 2 7 2
v 3 6 2
v 3 7 2
v -4 3 1
v -4 4 1
v -3 0 1
v -3 1 1
v -3 2 1
v -3 3 1
v -3 4 1
v -3 6 1
v -3 7 1
v -3 8 1
v -2 0 1
v -2 1 1
v -2 5 1
v -2 6 1
v -1 4 1
v -1 5 1
v -1 6 1
v 0 5 1
v 0 6 1
v 1 0 1
v 1 1 1
v 1 5 1
v 1 6 1
v 2 0 1
v 2 1 1
v 2 2 1
v 2 4 1
v 2 5 1
v 2 6 1
v 2 7 1
v 2 8 1
v -3 1 -0
v -3 2 -0
v -2 1 -0
v -2 2 -0
v 1 1 -0
v 1 2 -0
v 2 1 -0
v 2 2 -0
v 2 3 -0
v 2 4 -0
v 3 2 -0
v 3 3 -0
v 3 4 -0
v 1 5 2
v 1 6 2
v 1 7 2
v 1 8 2
v 2 5 2
v 2 6 2
v 2 7 2
v 2 8 2
v -4 3 -1
v -4 4 -1
v -3 0 -1
v -3 1 -1
v -3 2 -1
v -3 3 -1
v -3 4 -1
v -2 0 -1
v -2 1 -1
v -2 2 -1
v 1 0 -1
v 1 1 -1
v 1 2 -1
v 2 0 -1
v 2 1 -1
v 2 2 -1
v 2 3 -1
v 2 4 -1
v 3 2 -1
v 3 3 -1
v 3 4 -1
v -3 2 -2
v -3 4 -2
v -3 5 -2
v -3 6 -2
v -3 7 -2
v -3 8 -2
v 2 2 -2
v 2 4 -2
v 2 5 -2
v 2 6 -2
v 2 7 -2
v 2 8 -2
v -4 6 -3
v -4 7 -3
v 3 6 -3
v 3 7 -3
v -3 0 1
v -2 0 1
v 1 0 1
v 2 0 1
v -3 0 -1
v -2 0 -1
v 1 0 -1
v 2 0 -1
v -3 2 1
v 2 2 1
v -3 2 -0
v -2 2 -0
v 1 2 -0
v 2 2 -0
v 3 2 -0
v -3 2 -1
v -2 2 -1
v 1 2 -1
v 2 2 -1
v 3 2 -1
v -3 2 -2
v 2 2 -2
v -4 3 1
v -3 3 1
v -4 3 -0
v -3 3 -0
v -4 3 -1
v -3 3 -1
v 1 4 3
v 2 4 3
v -1 4 2
v 1 4 2
v -1 4 1
v 2 4 1
v -4 6 2
v 1 6 2
v 2 6 2
v 3 6 2
v -3 6 1
v -2 6 1
v -1 6 1
v 0 6 1
v 1 6 1
v 2 6 1
v -3 6 -0
v 2 6 -0
v -3 6 -2
v 2 6 -2
v -4 6 -3
v 3 6 -3
v -3 1 1
v -2 1 1
v 1 1 1
v 2 1 1
v -3 1 -0
v -2 1 -0
v 1 1 -0
v 2 1 -0
v -4 4 1
v -3 4 1
v -4 4 -0
v -3 4 -0
v 2 4 -0
v 3 4 -0
v -4 4 -1
v -3 4 -1
v 2 4 -1
v 3 4 -1
v -1 5 2
v 1 5 2
v 2 5 2
v -1 5 1
v 0 5 1
v 1 5 1
v 2 5 1
v -4 7 2
v 1 7 2
v 2 7 2
v 3 7 2
v -3 7 1
v 2 7 1
v -3 7 -2
v 2 7 -2
v -4 7 -3
v 3 7 -3
v 1 8 3
v 2 8 3
v 1 8 2
v 2 8 2
v -3 8 1
v 2 8 1
v -3 8 -2
v 2 8 -2

# faces
f 4/1/1 2/1/1 1/1/1
f 5/4/1 3/4/1 2/4/1
f 5/1/1 2/1/1 4/1/1
f 6/4/1 3/4/1 5/4/1
f 9/4/1 8/4/1 7/4/1
f 10/4/1 8/4/1 9/4/1
f 13/5/1 12/5/1 11/5/1
f 14/5/1 12/5/1 13/5/1
f 15/5/1 12/5/1 14/5/1
f 17/3/1 15/3/1 14/3/1
f 18/3/1 15/3/1 17/3/1
f 20/4/1 18/4/1 17/4/1
f 20/4/1 19/4/1 18/4/1
f 20/4/1 17/4/1 16/4/1
f 21/4/1 19/4/1 20/4/1
f 22/4/1 19/4/1 21/4/1
f 25/4/1 19/4/1 22/4/1
f 26/4/1 19/4/1 25/4/1
f 27/1/1 24/1/1 23/1/1
f 27/1/1 25/1/1 24/1/1
f 27/1/1 26/1/1 25/1/1
f 28/1/1 26/1/1 27/1/1
f 29/1/1 27/1/1 23/1/1
f 30/2/1 28/2/1 27/2/1
f 30/1/1 27/1/1 29/1/1
f 31/2/1 28/2/1 30/2/1
f 34/4/1 33/4/1 32/4/1
f 35/4/1 33/4/1 34/4/1
f 38/6/1 37/6/1 36/6/1
f 39/6/1 37/6/1 38/6/1
f 42/5/1 41/5/1 40/5/1
f 43/5/1 41/5/1 42/5/1
f 44/5/1 41/5/1 43/5/1
f 45/3/1 44/3/1 43/3/1
f 46/3/1 44/3/1 45/3/1
f 49/6/1 48/6/1 47/6/1
f 50/6/1 49/6/1 47/6/1
f 51/6/1 50/6/1 47/6/1
f 52/6/1 51/6/1 47/6/1
f 53/6/1 51/6/1 52/6/1
f 54/5/2 55/5/2 56/5/2
f 56/5/2 55/5/2 57/5/2
f 57/5/2 55/5/2 58/5/2
f 57/3/2 58/3/2 59/3/2
f 59/3/2 58/3/2 60/3/2
f 61/5/2 62/5/2 63/5/2
f 63/5/2 62/5/2 64/5/2
f 64/5/2 62/5/2 65/5/2
f 64/3/2 65/3/2 67/3/2
f 67/3/2 65/3/2 68/3/2
f 66/4/2 67/4/2 70/4/2
f 68/4/2 69/4/2 71/4/2
f 66/4/2 70/4/2 73/4/2
f 73/4/2 70/4/2 74/4/2
f 71/4/2 69/4/2 75/4/2
f 75/4/2 69/4/2 76/4/2
f 72/6/2 73/6/2 77/6/2
f 73/1/2 74/1/2 78/1/2
f 77/6/2 73/6/2 78/6/2
f 74/1/2 75/1/2 78/1/2
f 75/1/2 76/1/2 78/1/2
f 78/1/2 76/1/2 79/1/2
f 79/1/2 76/1/2 80/1/2
f 72/6/2 77/6/2 81/6/2
f 78/1/2 79/1/2 82/1/2
f 79/2/2 80/2/2 83/2/2
f 82/1/2 79/1/2 83/1/2
f 83/2/2 80/2/2 84/2/2
f 72/6/2 81/6/2 85/6/2
f 72/6/2 85/6/2 88/6/2
f 88/6/2 85/6/2 89/6/2
f 86/4/2 87/4/2 90/4/2
f 90/4/2 87/4/2 91/4/2
f 92/1/2 93/1/2 94/1/2
f 94/1/2 93/1/2 95/1/2
f 94/4/2 95/4/2 96/4/2
f 96/4/2 95/4/2 97/4/2
f 98/4/2 99/4/2 100/4/2
f 100/4/2 99/4/2 101/4/2
f 104/6/3 103/6/3 102/6/3
f 105/6/3 103/6/3 104/6/3
f 110/6/3 109/6/3 108/6/3
f 111/6/3 109/6/3 110/6/3
f 112/4/3 107/4/3 106/4/3
f 113/4/3 107/4/3 112/4/3
f 116/4/3 115/4/3 114/4/3
f 117/4/3 115/4/3 116/4/3
f 123/1/3 119/1/3 118/1/3
f 124/1/3 119/1/3 123/1/3
f 128/5/3 121/5/3 120/5/3
f 129/5/3 121/5/3 128/5/3
f 130/1/3 125/1/3 124/1/3
f 131/1/3 125/1/3 130/1/3
f 132/4/3 123/4/3 122/4/3
f 132/4/3 124/4/3 123/4/3
f 132/1/3 130/1/3 124/1/3
f 133/7/3 131/7/3 130/7/3
f 133/1/3 130/1/3 132/1/3
f 134/7/3 131/7/3 133/7/3
f 135/1/3 134/1/3 133/1/3
f 136/1/3 134/1/3 135/1/3
f 139/7/3 136/7/3 135/7/3
f 140/7/3 136/7/3 139/7/3
f 141/5/3 138/5/3 137/5/3
f 142/5/3 138/5/3 141/5/3
f 143/4/3 132/4/3 122/4/3
f 144/4/3 132/4/3 143/4/3
f 145/1/3 140/1/3 139/1/3
f 146/1/3 140/1/3 145/1/3
f 147/4/3 127/4/3 126/4/3
f 148/4/3 127/4/3 147/4/3
f 151/3/3 150/3/3 149/3/3
f 152/3/3 150/3/3 151/3/3
f 155/3/3 154/3/3 153/3/3
f 156/3/3 154/3/3 155/3/3
f 159/1/3 157/1/3 156/1/3
f 160/4/3 158/4/3 157/4/3
f 160/1/3 157/1/3 159/1/3
f 161/4/3 158/4/3 160/4/3
f 162/6/4 163/6/4 166/6/4
f 166/6/4 163/6/4 167/6/4
f 164/6/4 165/6/4 168/6/4
f 168/6/4 165/6/4 169/6/4
f 170/4/4 171/4/4 175/4/4
f 175/4/4 171/4/4 176/4/4
f 172/5/4 173/5/4 177/5/4
f 173/3/4 174/3/4 178/3/4
f 177/5/4 173/5/4 178/5/4
f 178/3/4 174/3/4 179/3/4
f 180/5/4 181/5/4 183/5/4
f 181/3/4 182/3/4 184/3/4
f 183/5/4 181/5/4 184/5/4
f 184/3/4 182/3/4 185/3/4
f 185/1/4 186/1/4 188/1/4
f 186/4/4 187/4/4 189/4/4
f 188/1/4 186/1/4 189/1/4
f 189/4/4 187/4/4 190/4/4
f 191/4/4 192/4/4 197/4/4
f 192/1/4 193/1/4 198/1/4
f 197/4/4 192/4/4 198/4/4
f 193/2/4 194/2/4 199/2/4
f 198/1/4 193/1/4 199/1/4
f 199/2/4 194/2/4 200/2/4
f 195/4/4 196/4/4 201/4/4
f 201/4/4 196/4/4 202/4/4
f 203/4/4 204/4/4 205/4/4
f 205/4/4 204/4/4 206/4/4
f 211/5/5 208/5/5 207/5/5
f 212/5/5 208/5/5 211/5/5
f 213/5/5 210/5/5 209/5/5
f 214/5/5 210/5/5 213/5/5
f 217/4/5 216/4/5 215/4/5
f 218/4/5 216/4/5 217/4/5
f 219/4/5 216/4/5 218/4/5
f 220/4/5 216/4/5 219/4/5
f 223/5/5 219/5/5 218/5/5
f 224/5/5 219/5/5 223/5/5
f 225/1/5 221/1/5 220/1/5
f 226/1/5 221/1/5 225/1/5
f 227/4/5 224/4/5 223/4/5
f 227/4/5 223/4/5 222/4/5
f 227/4/5 225/4/5 224/4/5
f 228/4/5 225/4/5 227/4/5
f 231/1/5 230/1/5 229/1/5
f 232/1/5 230/1/5 231/1/5
f 233/4/5 232/4/5 231/4/5
f 234/4/5 232/4/5 233/4/5
f 238/6/5 236/6/5 235/6/5
f 239/6/5 238/6/5 237/6/5
f 240/6/5 236/6/5 238/6/5
f 240/6/5 238/6/5 239/6/5
f 245/4/5 242/4/5 241/4/5
f 245/4/5 244/4/5 243/4/5
f 245/4/5 243/4/5 242/4/5
f 246/4/5 244/4/5 245/4/5
f 247/4/5 244/4/5 246/4/5
f 248/4/5 244/4/5 247/4/5
f 249/4/5 244/4/5 248/4/5
f 250/4/5 244/4/5 249/4/5
f 251/4/5 245/4/5 241/4/5
f 252/4/5 244/4/5 250/4/5
f 253/4/5 251/4/5 241/4/5
f 254/4/5 244/4/5 252/4/5
f 255/4/5 253/4/5 241/4/5
f 255/4/5 254/4/5 253/4/5
f 256/4/5 244/4/5 254/4/5
f 256/4/5 254/4/5 255/4/5
f 257/5/6 258/5/6 261/5/6
f 261/5/6 258/5/6 262/5/6
f 259/5/6 260/5/6 263/5/6
f 263/5/6 260/5/6 264/5/6
f 265/1/6 266/1/6 267/1/6
f 267/1/6 266/1/6 268/1/6
f 267/4/6 268/4/6 271/4/6
f 271/4/6 268/4/6 272/4/6
f 269/4/6 270/4/6 273/4/6
f 273/4/6 270/4/6 274/4/6
f 275/6/6 276/6/6 278/6/6
f 276/6/6 277/6/6 278/6/6
f 278/6/6 277/6/6 279/6/6
f 279/6/6 277/6/6 280/6/6
f 280/6/6 277/6/6 281/6/6
f 282/4/6 283/4/6 286/4/6
f 284/4/6 285/4/6 286/4/6
f 283/4/6 284/4/6 286/4/6
f 286/4/6 285/4/6 287/4/6
f 282/4/6 286/4/6 288/4/6
f 287/4/6 285/4/6 289/4/6
f 282/4/6 288/4/6 290/4/6
f 288/4/6 289/4/6 290/4/6
f 289/4/6 285/4/6 291/4/6
f 290/4/6 289/4/6 291/4/6
f 292/6/6 293/6/6 294/6/6
f 294/6/6 293/6/6 295/6/6
f 296/4/6 297/4/6 298/4/6
f 298/4/6 297/4/6 299/4/6
